<svg id="visual" viewBox="0 0 450 900" width="450" height="900" xmlns="http://www.w3.org/2000/svg" xmlns:xlink="http://www.w3.org/1999/xlink" version="1.1"><g stroke-width="1" stroke-linejoin="bevel"><path d="M227 433L240 460.3L243.3 411Z" fill="#acd4ff" stroke="#acd4ff"></path><path d="M240 460.3L306.5 460L243.3 411Z" fill="#acd4ff" stroke="#acd4ff"></path><path d="M306.5 460L290.3 384.5L243.3 411Z" fill="#d3eaff" stroke="#d3eaff"></path><path d="M290.3 384.5L233 371.8L243.3 411Z" fill="#b8dbff" stroke="#b8dbff"></path><path d="M243.3 411L179.8 375.8L227 433Z" fill="#b2d7ff" stroke="#b2d7ff"></path><path d="M213 511.5L255.3 518.3L240 460.3Z" fill="#b2d7ff" stroke="#b2d7ff"></path><path d="M240 460.3L255.3 518.3L306.5 460Z" fill="#b2d7ff" stroke="#b2d7ff"></path><path d="M124.8 469L213 511.5L227 433Z" fill="#acd4ff" stroke="#acd4ff"></path><path d="M227 433L213 511.5L240 460.3Z" fill="#a5d0ff" stroke="#a5d0ff"></path><path d="M213 511.5L217.8 518.3L255.3 518.3Z" fill="#bfdfff" stroke="#bfdfff"></path><path d="M372.8 463L350.5 425.8L306.5 460Z" fill="#acd4ff" stroke="#acd4ff"></path><path d="M306.5 460L350.5 425.8L290.3 384.5Z" fill="#e1f1ff" stroke="#e1f1ff"></path><path d="M233 371.8L179.8 375.8L243.3 411Z" fill="#b8dbff" stroke="#b8dbff"></path><path d="M179.8 375.8L151.5 409L227 433Z" fill="#bfdfff" stroke="#bfdfff"></path><path d="M350.5 425.8L323.3 348.8L290.3 384.5Z" fill="#a5d0ff" stroke="#a5d0ff"></path><path d="M290.3 384.5L238.3 321.3L233 371.8Z" fill="#e1f1ff" stroke="#e1f1ff"></path><path d="M233 371.8L238.3 321.3L179.8 375.8Z" fill="#9fccff" stroke="#9fccff"></path><path d="M340.5 524.3L331.5 519.5L272.3 580.5Z" fill="#b8dbff" stroke="#b8dbff"></path><path d="M255.3 518.3L331.5 519.5L306.5 460Z" fill="#b8dbff" stroke="#b8dbff"></path><path d="M297.5 306.3L238.3 321.3L290.3 384.5Z" fill="#acd4ff" stroke="#acd4ff"></path><path d="M331.5 519.5L372.8 463L306.5 460Z" fill="#a5d0ff" stroke="#a5d0ff"></path><path d="M350.5 425.8L370.5 342.5L323.3 348.8Z" fill="#d3eaff" stroke="#d3eaff"></path><path d="M272.3 580.5L331.5 519.5L255.3 518.3Z" fill="#b2d7ff" stroke="#b2d7ff"></path><path d="M331.5 519.5L340.5 524.3L372.8 463Z" fill="#a5d0ff" stroke="#a5d0ff"></path><path d="M124.8 469L168.8 528.5L213 511.5Z" fill="#c6e3ff" stroke="#c6e3ff"></path><path d="M213 511.5L168.8 528.5L217.8 518.3Z" fill="#a5d0ff" stroke="#a5d0ff"></path><path d="M217.8 518.3L272.3 580.5L255.3 518.3Z" fill="#c6e3ff" stroke="#c6e3ff"></path><path d="M150.5 323.3L151.5 361.5L179.8 375.8Z" fill="#e1f1ff" stroke="#e1f1ff"></path><path d="M179.8 375.8L151.5 361.5L151.5 409Z" fill="#b8dbff" stroke="#b8dbff"></path><path d="M68.3 387.5L124.8 469L151.5 409Z" fill="#bfdfff" stroke="#bfdfff"></path><path d="M151.5 409L124.8 469L227 433Z" fill="#c6e3ff" stroke="#c6e3ff"></path><path d="M323.3 348.8L297.5 306.3L290.3 384.5Z" fill="#bfdfff" stroke="#bfdfff"></path><path d="M232 634.8L272.3 580.5L217.8 518.3Z" fill="#e1f1ff" stroke="#e1f1ff"></path><path d="M124.8 469L138.5 524.3L168.8 528.5Z" fill="#c6e3ff" stroke="#c6e3ff"></path><path d="M168.8 528.5L232 634.8L217.8 518.3Z" fill="#c6e3ff" stroke="#c6e3ff"></path><path d="M427.8 345.8L370.5 342.5L450 403.8Z" fill="#a5d0ff" stroke="#a5d0ff"></path><path d="M323.3 348.8L366.8 300.5L297.5 306.3Z" fill="#a5d0ff" stroke="#a5d0ff"></path><path d="M340.5 524.3L388.8 509.3L372.8 463Z" fill="#c6e3ff" stroke="#c6e3ff"></path><path d="M427.8 345.8L379.8 323.3L370.5 342.5Z" fill="#a5d0ff" stroke="#a5d0ff"></path><path d="M353.5 588.8L388.8 509.3L340.5 524.3Z" fill="#acd4ff" stroke="#acd4ff"></path><path d="M193 288.5L150.5 323.3L179.8 375.8Z" fill="#b8dbff" stroke="#b8dbff"></path><path d="M151.5 361.5L107.5 344.8L151.5 409Z" fill="#c6e3ff" stroke="#c6e3ff"></path><path d="M193 288.5L179.8 375.8L238.3 321.3Z" fill="#d3eaff" stroke="#d3eaff"></path><path d="M264 275.3L193 288.5L238.3 321.3Z" fill="#cce6ff" stroke="#cce6ff"></path><path d="M314.3 246L264 275.3L297.5 306.3Z" fill="#daedff" stroke="#daedff"></path><path d="M297.5 306.3L264 275.3L238.3 321.3Z" fill="#daedff" stroke="#daedff"></path><path d="M124.8 469L109.3 515.3L138.5 524.3Z" fill="#b8dbff" stroke="#b8dbff"></path><path d="M138.5 524.3L111.5 558.5L168.8 528.5Z" fill="#b2d7ff" stroke="#b2d7ff"></path><path d="M54.3 405L109.3 515.3L124.8 469Z" fill="#acd4ff" stroke="#acd4ff"></path><path d="M160.8 289.5L144.8 312.3L150.5 323.3Z" fill="#e1f1ff" stroke="#e1f1ff"></path><path d="M150.5 323.3L107.5 344.8L151.5 361.5Z" fill="#c6e3ff" stroke="#c6e3ff"></path><path d="M370.5 342.5L350.5 425.8L450 403.8Z" fill="#9fccff" stroke="#9fccff"></path><path d="M370.5 342.5L366.8 300.5L323.3 348.8Z" fill="#daedff" stroke="#daedff"></path><path d="M144.8 312.3L107.5 344.8L150.5 323.3Z" fill="#d3eaff" stroke="#d3eaff"></path><path d="M193 288.5L160.8 289.5L150.5 323.3Z" fill="#9fccff" stroke="#9fccff"></path><path d="M144.8 312.3L93.3 333.3L107.5 344.8Z" fill="#bfdfff" stroke="#bfdfff"></path><path d="M160.8 244L160.8 289.5L193 288.5Z" fill="#cce6ff" stroke="#cce6ff"></path><path d="M379.8 323.3L366.8 300.5L370.5 342.5Z" fill="#cce6ff" stroke="#cce6ff"></path><path d="M272.3 580.5L353.5 588.8L340.5 524.3Z" fill="#e1f1ff" stroke="#e1f1ff"></path><path d="M109.3 515.3L111.5 558.5L138.5 524.3Z" fill="#cce6ff" stroke="#cce6ff"></path><path d="M160.8 244L93.3 333.3L144.8 312.3Z" fill="#bfdfff" stroke="#bfdfff"></path><path d="M107.5 344.8L68.3 387.5L151.5 409Z" fill="#e1f1ff" stroke="#e1f1ff"></path><path d="M109.3 515.3L36.3 561.5L111.5 558.5Z" fill="#a5d0ff" stroke="#a5d0ff"></path><path d="M93.3 333.3L68.3 387.5L107.5 344.8Z" fill="#b2d7ff" stroke="#b2d7ff"></path><path d="M450 403.8L350.5 425.8L372.8 463Z" fill="#9fccff" stroke="#9fccff"></path><path d="M379.8 323.3L450 293.5L366.8 300.5Z" fill="#cce6ff" stroke="#cce6ff"></path><path d="M450 471.3L372.8 463L388.8 509.3Z" fill="#acd4ff" stroke="#acd4ff"></path><path d="M450 471.3L450 468L372.8 463Z" fill="#9fccff" stroke="#9fccff"></path><path d="M450 468L450 403.8L372.8 463Z" fill="#b2d7ff" stroke="#b2d7ff"></path><path d="M450 574.5L450 471.3L388.8 509.3Z" fill="#bfdfff" stroke="#bfdfff"></path><path d="M141.5 636.8L232 634.8L168.8 528.5Z" fill="#d3eaff" stroke="#d3eaff"></path><path d="M272.3 580.5L287.3 648.8L353.5 588.8Z" fill="#d3eaff" stroke="#d3eaff"></path><path d="M292.5 197.8L314.3 246L344.8 197.8Z" fill="#bfdfff" stroke="#bfdfff"></path><path d="M366.8 300.5L314.3 246L297.5 306.3Z" fill="#c6e3ff" stroke="#c6e3ff"></path><path d="M264 275.3L249 236L193 288.5Z" fill="#c6e3ff" stroke="#c6e3ff"></path><path d="M314.3 246L249 236L264 275.3Z" fill="#e1f1ff" stroke="#e1f1ff"></path><path d="M9.3 401.8L54.3 405L68.3 387.5Z" fill="#e1f1ff" stroke="#e1f1ff"></path><path d="M68.3 387.5L54.3 405L124.8 469Z" fill="#e1f1ff" stroke="#e1f1ff"></path><path d="M249 236L160.8 244L193 288.5Z" fill="#cce6ff" stroke="#cce6ff"></path><path d="M160.8 289.5L160.8 244L144.8 312.3Z" fill="#9fccff" stroke="#9fccff"></path><path d="M232 634.8L287.3 648.8L272.3 580.5Z" fill="#9fccff" stroke="#9fccff"></path><path d="M36.3 561.5L116.8 609.8L111.5 558.5Z" fill="#c6e3ff" stroke="#c6e3ff"></path><path d="M111.5 558.5L116.8 609.8L168.8 528.5Z" fill="#d3eaff" stroke="#d3eaff"></path><path d="M263.3 709L275 706L287.3 648.8Z" fill="#b2d7ff" stroke="#b2d7ff"></path><path d="M116.8 609.8L141.5 636.8L168.8 528.5Z" fill="#9fccff" stroke="#9fccff"></path><path d="M141.5 636.8L186.8 659L232 634.8Z" fill="#d3eaff" stroke="#d3eaff"></path><path d="M403.8 627.8L421.8 602.5L353.5 588.8Z" fill="#b2d7ff" stroke="#b2d7ff"></path><path d="M353.5 588.8L421.8 602.5L388.8 509.3Z" fill="#daedff" stroke="#daedff"></path><path d="M421.8 602.5L450 574.5L388.8 509.3Z" fill="#cce6ff" stroke="#cce6ff"></path><path d="M314.3 246L292.5 197.8L249 236Z" fill="#acd4ff" stroke="#acd4ff"></path><path d="M249 236L206.8 193.8L160.8 244Z" fill="#a5d0ff" stroke="#a5d0ff"></path><path d="M344.8 197.8L314.3 246L375.8 195Z" fill="#d3eaff" stroke="#d3eaff"></path><path d="M450 403.8L450 293.5L427.8 345.8Z" fill="#a5d0ff" stroke="#a5d0ff"></path><path d="M427.8 345.8L450 293.5L379.8 323.3Z" fill="#e1f1ff" stroke="#e1f1ff"></path><path d="M287.3 648.8L403.8 627.8L353.5 588.8Z" fill="#daedff" stroke="#daedff"></path><path d="M421.8 602.5L450 626.8L450 574.5Z" fill="#acd4ff" stroke="#acd4ff"></path><path d="M292.5 197.8L206.8 193.8L249 236Z" fill="#daedff" stroke="#daedff"></path><path d="M0 314.5L9.3 401.8L68.3 387.5Z" fill="#b2d7ff" stroke="#b2d7ff"></path><path d="M0 516.3L36.3 561.5L109.3 515.3Z" fill="#acd4ff" stroke="#acd4ff"></path><path d="M0 402L9.3 401.8L0 314.5Z" fill="#9fccff" stroke="#9fccff"></path><path d="M68.3 387.5L93.3 333.3L0 314.5Z" fill="#bfdfff" stroke="#bfdfff"></path><path d="M450 293.5L450 280.3L366.8 300.5Z" fill="#daedff" stroke="#daedff"></path><path d="M0 516.3L109.3 515.3L54.3 405Z" fill="#e1f1ff" stroke="#e1f1ff"></path><path d="M116.8 609.8L115.5 648L141.5 636.8Z" fill="#daedff" stroke="#daedff"></path><path d="M8.3 665.8L115.5 648L116.8 609.8Z" fill="#c6e3ff" stroke="#c6e3ff"></path><path d="M141.5 636.8L115.5 648L186.8 659Z" fill="#e1f1ff" stroke="#e1f1ff"></path><path d="M9.3 401.8L0 430.8L54.3 405Z" fill="#9fccff" stroke="#9fccff"></path><path d="M375.8 195L314.3 246L366.8 300.5Z" fill="#cce6ff" stroke="#cce6ff"></path><path d="M211 99.5L158.5 180.8L206.8 193.8Z" fill="#b8dbff" stroke="#b8dbff"></path><path d="M0 314.5L93.3 333.3L0 270.3Z" fill="#b8dbff" stroke="#b8dbff"></path><path d="M9.3 401.8L0 402L0 430.8Z" fill="#b2d7ff" stroke="#b2d7ff"></path><path d="M450 280.3L450 257L366.8 300.5Z" fill="#bfdfff" stroke="#bfdfff"></path><path d="M0 430.8L0 516.3L54.3 405Z" fill="#b8dbff" stroke="#b8dbff"></path><path d="M450 257L375.8 195L366.8 300.5Z" fill="#bfdfff" stroke="#bfdfff"></path><path d="M310.3 116.8L271 120.8L292.5 197.8Z" fill="#e1f1ff" stroke="#e1f1ff"></path><path d="M263.3 709L287.3 648.8L232 634.8Z" fill="#b2d7ff" stroke="#b2d7ff"></path><path d="M374.5 710.3L417.8 667L403.8 627.8Z" fill="#a5d0ff" stroke="#a5d0ff"></path><path d="M263.3 709L232 634.8L186.8 659Z" fill="#a5d0ff" stroke="#a5d0ff"></path><path d="M417.8 667L450 626.8L403.8 627.8Z" fill="#acd4ff" stroke="#acd4ff"></path><path d="M403.8 627.8L450 626.8L421.8 602.5Z" fill="#daedff" stroke="#daedff"></path><path d="M271 720.3L263.3 709L225 734.5Z" fill="#cce6ff" stroke="#cce6ff"></path><path d="M143.5 175L158.5 180.8L147.8 109.5Z" fill="#a5d0ff" stroke="#a5d0ff"></path><path d="M206.8 193.8L158.5 180.8L160.8 244Z" fill="#b8dbff" stroke="#b8dbff"></path><path d="M450 216.8L372.5 182L375.8 195Z" fill="#acd4ff" stroke="#acd4ff"></path><path d="M375.8 195L372.5 182L344.8 197.8Z" fill="#acd4ff" stroke="#acd4ff"></path><path d="M374.5 710.3L403.8 627.8L287.3 648.8Z" fill="#c6e3ff" stroke="#c6e3ff"></path><path d="M0 270.3L93.3 333.3L38.3 204Z" fill="#c6e3ff" stroke="#c6e3ff"></path><path d="M271 120.8L206.8 193.8L292.5 197.8Z" fill="#b2d7ff" stroke="#b2d7ff"></path><path d="M158.5 180.8L143.5 175L160.8 244Z" fill="#a5d0ff" stroke="#a5d0ff"></path><path d="M263.3 709L271 720.3L275 706Z" fill="#b8dbff" stroke="#b8dbff"></path><path d="M275 706L289.5 724L287.3 648.8Z" fill="#e1f1ff" stroke="#e1f1ff"></path><path d="M225 734.5L263.3 709L186.8 659Z" fill="#cce6ff" stroke="#cce6ff"></path><path d="M36.3 561.5L8.3 665.8L116.8 609.8Z" fill="#a5d0ff" stroke="#a5d0ff"></path><path d="M0 516.3L0 570.5L36.3 561.5Z" fill="#c6e3ff" stroke="#c6e3ff"></path><path d="M271 720.3L289.5 724L275 706Z" fill="#a5d0ff" stroke="#a5d0ff"></path><path d="M0 570.5L0 581.8L36.3 561.5Z" fill="#e1f1ff" stroke="#e1f1ff"></path><path d="M450 257L450 216.8L375.8 195Z" fill="#c6e3ff" stroke="#c6e3ff"></path><path d="M289.5 724L374.5 710.3L287.3 648.8Z" fill="#c6e3ff" stroke="#c6e3ff"></path><path d="M126.8 761.3L186.8 659L115.5 648Z" fill="#cce6ff" stroke="#cce6ff"></path><path d="M126.8 761.3L225 734.5L186.8 659Z" fill="#d3eaff" stroke="#d3eaff"></path><path d="M271 720.3L251.3 758.3L289.5 724Z" fill="#daedff" stroke="#daedff"></path><path d="M373.5 813.5L402.8 769.3L374.5 710.3Z" fill="#daedff" stroke="#daedff"></path><path d="M38.3 204L93.3 333.3L160.8 244Z" fill="#cce6ff" stroke="#cce6ff"></path><path d="M450 697.3L450 675L417.8 667Z" fill="#c6e3ff" stroke="#c6e3ff"></path><path d="M417.8 667L450 675L450 626.8Z" fill="#b2d7ff" stroke="#b2d7ff"></path><path d="M310.3 116.8L344.8 197.8L364.5 125.5Z" fill="#9fccff" stroke="#9fccff"></path><path d="M310.3 116.8L292.5 197.8L344.8 197.8Z" fill="#cce6ff" stroke="#cce6ff"></path><path d="M143.5 175L38.3 204L160.8 244Z" fill="#bfdfff" stroke="#bfdfff"></path><path d="M34.3 156.5L38.3 204L82.5 120.5Z" fill="#bfdfff" stroke="#bfdfff"></path><path d="M261.3 781.5L251.3 758.3L249.3 789.8Z" fill="#acd4ff" stroke="#acd4ff"></path><path d="M225 734.5L251.3 758.3L271 720.3Z" fill="#9fccff" stroke="#9fccff"></path><path d="M8.3 665.8L62.5 696.3L115.5 648Z" fill="#e1f1ff" stroke="#e1f1ff"></path><path d="M364.5 125.5L344.8 197.8L372.5 182Z" fill="#b8dbff" stroke="#b8dbff"></path><path d="M402.8 769.3L450 697.3L374.5 710.3Z" fill="#e1f1ff" stroke="#e1f1ff"></path><path d="M374.5 710.3L450 697.3L417.8 667Z" fill="#b2d7ff" stroke="#b2d7ff"></path><path d="M400.8 102.3L364.5 125.5L372.5 182Z" fill="#e1f1ff" stroke="#e1f1ff"></path><path d="M38.3 204L0 219.8L0 270.3Z" fill="#e1f1ff" stroke="#e1f1ff"></path><path d="M0 581.8L8.3 665.8L36.3 561.5Z" fill="#acd4ff" stroke="#acd4ff"></path><path d="M256.3 91.5L271 120.8L319.5 97.3Z" fill="#bfdfff" stroke="#bfdfff"></path><path d="M256.3 91.5L211 99.5L271 120.8Z" fill="#b8dbff" stroke="#b8dbff"></path><path d="M271 120.8L211 99.5L206.8 193.8Z" fill="#bfdfff" stroke="#bfdfff"></path><path d="M38.3 204L0 202L0 219.8Z" fill="#b8dbff" stroke="#b8dbff"></path><path d="M211 99.5L147.8 109.5L158.5 180.8Z" fill="#e1f1ff" stroke="#e1f1ff"></path><path d="M319.5 97.3L271 120.8L310.3 116.8Z" fill="#d3eaff" stroke="#d3eaff"></path><path d="M211 99.5L153.5 100.3L147.8 109.5Z" fill="#e1f1ff" stroke="#e1f1ff"></path><path d="M249.3 789.8L251.3 758.3L225 734.5Z" fill="#b8dbff" stroke="#b8dbff"></path><path d="M251.3 758.3L261.3 781.5L289.5 724Z" fill="#b8dbff" stroke="#b8dbff"></path><path d="M364.5 125.5L319.5 97.3L310.3 116.8Z" fill="#9fccff" stroke="#9fccff"></path><path d="M0 165.5L0 202L38.3 204Z" fill="#b8dbff" stroke="#b8dbff"></path><path d="M89.3 764.3L126.8 761.3L62.5 696.3Z" fill="#acd4ff" stroke="#acd4ff"></path><path d="M62.5 696.3L126.8 761.3L115.5 648Z" fill="#acd4ff" stroke="#acd4ff"></path><path d="M163.5 0L153.5 100.3L211 99.5Z" fill="#daedff" stroke="#daedff"></path><path d="M82.5 120.5L38.3 204L143.5 175Z" fill="#d3eaff" stroke="#d3eaff"></path><path d="M0 581.8L0 680.3L8.3 665.8Z" fill="#a5d0ff" stroke="#a5d0ff"></path><path d="M8.3 665.8L0 691L62.5 696.3Z" fill="#b2d7ff" stroke="#b2d7ff"></path><path d="M133.8 815.8L249.3 789.8L225 734.5Z" fill="#c6e3ff" stroke="#c6e3ff"></path><path d="M373.5 813.5L374.5 710.3L289.5 724Z" fill="#daedff" stroke="#daedff"></path><path d="M82.5 120.5L143.5 175L147.8 109.5Z" fill="#a5d0ff" stroke="#a5d0ff"></path><path d="M319.5 97.3L264 14.3L256.3 91.5Z" fill="#c6e3ff" stroke="#c6e3ff"></path><path d="M364.5 125.5L352.8 92.5L319.5 97.3Z" fill="#b2d7ff" stroke="#b2d7ff"></path><path d="M400.8 102.3L352.8 92.5L364.5 125.5Z" fill="#acd4ff" stroke="#acd4ff"></path><path d="M82.3 119.8L82.5 120.5L147.8 109.5Z" fill="#d3eaff" stroke="#d3eaff"></path><path d="M0 680.3L0 691L8.3 665.8Z" fill="#e1f1ff" stroke="#e1f1ff"></path><path d="M76.3 107.3L82.3 119.8L147.8 109.5Z" fill="#d3eaff" stroke="#d3eaff"></path><path d="M82.5 120.5L82.3 119.8L34.3 156.5Z" fill="#9fccff" stroke="#9fccff"></path><path d="M450 216.8L450 132.5L372.5 182Z" fill="#daedff" stroke="#daedff"></path><path d="M373.5 813.5L289.5 724L261.3 781.5Z" fill="#a5d0ff" stroke="#a5d0ff"></path><path d="M450 132.5L400.8 102.3L372.5 182Z" fill="#bfdfff" stroke="#bfdfff"></path><path d="M24.3 766.5L89.3 764.3L62.5 696.3Z" fill="#9fccff" stroke="#9fccff"></path><path d="M126.8 761.3L133.8 815.8L225 734.5Z" fill="#daedff" stroke="#daedff"></path><path d="M0 59.3L0 165.5L34.3 156.5Z" fill="#bfdfff" stroke="#bfdfff"></path><path d="M34.3 156.5L0 165.5L38.3 204Z" fill="#daedff" stroke="#daedff"></path><path d="M153.5 100.3L76.3 107.3L147.8 109.5Z" fill="#c6e3ff" stroke="#c6e3ff"></path><path d="M82.3 119.8L76.3 107.3L34.3 156.5Z" fill="#b8dbff" stroke="#b8dbff"></path><path d="M0 691L8.3 721L62.5 696.3Z" fill="#a5d0ff" stroke="#a5d0ff"></path><path d="M306.3 900L373.5 813.5L261.3 781.5Z" fill="#a5d0ff" stroke="#a5d0ff"></path><path d="M389.5 824.8L390.5 900L395.8 831.8Z" fill="#d3eaff" stroke="#d3eaff"></path><path d="M80.5 825.5L133.8 815.8L89.3 764.3Z" fill="#bfdfff" stroke="#bfdfff"></path><path d="M89.3 764.3L133.8 815.8L126.8 761.3Z" fill="#b8dbff" stroke="#b8dbff"></path><path d="M389.5 824.8L446.8 786.5L402.8 769.3Z" fill="#cce6ff" stroke="#cce6ff"></path><path d="M402.8 769.3L450 785.5L450 697.3Z" fill="#daedff" stroke="#daedff"></path><path d="M450 854.8L450 785.5L446.8 786.5Z" fill="#a5d0ff" stroke="#a5d0ff"></path><path d="M446.8 786.5L450 785.5L402.8 769.3Z" fill="#bfdfff" stroke="#bfdfff"></path><path d="M8.3 721L24.3 766.5L62.5 696.3Z" fill="#d3eaff" stroke="#d3eaff"></path><path d="M24.3 766.5L63.5 790.8L89.3 764.3Z" fill="#d3eaff" stroke="#d3eaff"></path><path d="M389.5 824.8L373.5 813.5L390.5 900Z" fill="#d3eaff" stroke="#d3eaff"></path><path d="M373.5 813.5L389.5 824.8L402.8 769.3Z" fill="#b2d7ff" stroke="#b2d7ff"></path><path d="M306.3 900L261.3 781.5L249.3 789.8Z" fill="#b8dbff" stroke="#b8dbff"></path><path d="M389.5 824.8L395.8 831.8L446.8 786.5Z" fill="#b2d7ff" stroke="#b2d7ff"></path><path d="M80.5 825.5L130.8 839.5L133.8 815.8Z" fill="#acd4ff" stroke="#acd4ff"></path><path d="M133.8 815.8L237 882.8L249.3 789.8Z" fill="#d3eaff" stroke="#d3eaff"></path><path d="M80.5 825.5L89.3 764.3L63.5 790.8Z" fill="#c6e3ff" stroke="#c6e3ff"></path><path d="M320.3 9.3L319.5 97.3L352.8 92.5Z" fill="#e1f1ff" stroke="#e1f1ff"></path><path d="M320.3 9.3L264 14.3L319.5 97.3Z" fill="#9fccff" stroke="#9fccff"></path><path d="M256.3 91.5L236 0L211 99.5Z" fill="#d3eaff" stroke="#d3eaff"></path><path d="M153.5 100.3L114.8 10.3L76.3 107.3Z" fill="#e1f1ff" stroke="#e1f1ff"></path><path d="M320.3 9.3L352.8 92.5L354.5 0Z" fill="#a5d0ff" stroke="#a5d0ff"></path><path d="M66.3 845.8L80.5 825.5L63.5 790.8Z" fill="#a5d0ff" stroke="#a5d0ff"></path><path d="M354.5 0L352.8 92.5L400.8 102.3Z" fill="#acd4ff" stroke="#acd4ff"></path><path d="M320.3 9.3L247.3 0L264 14.3Z" fill="#d3eaff" stroke="#d3eaff"></path><path d="M264 14.3L236 0L256.3 91.5Z" fill="#a5d0ff" stroke="#a5d0ff"></path><path d="M247.3 0L236 0L264 14.3Z" fill="#c6e3ff" stroke="#c6e3ff"></path><path d="M450 132.5L450 37.3L400.8 102.3Z" fill="#e1f1ff" stroke="#e1f1ff"></path><path d="M236 0L163.5 0L211 99.5Z" fill="#b8dbff" stroke="#b8dbff"></path><path d="M76.3 107.3L0 59.3L34.3 156.5Z" fill="#cce6ff" stroke="#cce6ff"></path><path d="M163.5 0L161.8 0L153.5 100.3Z" fill="#9fccff" stroke="#9fccff"></path><path d="M178.8 900L237 882.8L130.8 839.5Z" fill="#9fccff" stroke="#9fccff"></path><path d="M130.8 839.5L237 882.8L133.8 815.8Z" fill="#b8dbff" stroke="#b8dbff"></path><path d="M421.8 0L354.5 0L400.8 102.3Z" fill="#b2d7ff" stroke="#b2d7ff"></path><path d="M320.3 9.3L354.5 0L247.3 0Z" fill="#b2d7ff" stroke="#b2d7ff"></path><path d="M161.8 0L114.8 10.3L153.5 100.3Z" fill="#cce6ff" stroke="#cce6ff"></path><path d="M0 838.5L66.3 845.8L63.5 790.8Z" fill="#d3eaff" stroke="#d3eaff"></path><path d="M80.5 825.5L66.3 845.8L130.8 839.5Z" fill="#c6e3ff" stroke="#c6e3ff"></path><path d="M78.3 0L0 59.3L76.3 107.3Z" fill="#a5d0ff" stroke="#a5d0ff"></path><path d="M429.8 900L450 854.8L395.8 831.8Z" fill="#d3eaff" stroke="#d3eaff"></path><path d="M395.8 831.8L450 854.8L446.8 786.5Z" fill="#c6e3ff" stroke="#c6e3ff"></path><path d="M178.8 900L269 900L237 882.8Z" fill="#a5d0ff" stroke="#a5d0ff"></path><path d="M237 882.8L269 900L249.3 789.8Z" fill="#daedff" stroke="#daedff"></path><path d="M269 900L306.3 900L249.3 789.8Z" fill="#b2d7ff" stroke="#b2d7ff"></path><path d="M450 37.3L421.8 0L400.8 102.3Z" fill="#a5d0ff" stroke="#a5d0ff"></path><path d="M71.3 900L178.8 900L130.8 839.5Z" fill="#a5d0ff" stroke="#a5d0ff"></path><path d="M161.8 0L78.3 0L114.8 10.3Z" fill="#9fccff" stroke="#9fccff"></path><path d="M114.8 10.3L78.3 0L76.3 107.3Z" fill="#d3eaff" stroke="#d3eaff"></path><path d="M8.3 721L0 838.5L24.3 766.5Z" fill="#acd4ff" stroke="#acd4ff"></path><path d="M24.3 766.5L0 838.5L63.5 790.8Z" fill="#9fccff" stroke="#9fccff"></path><path d="M66.3 845.8L71.3 900L130.8 839.5Z" fill="#acd4ff" stroke="#acd4ff"></path><path d="M0 691L0 838.5L8.3 721Z" fill="#b2d7ff" stroke="#b2d7ff"></path><path d="M450 37.3L450 0L421.8 0Z" fill="#bfdfff" stroke="#bfdfff"></path><path d="M0 838.5L0 842.8L66.3 845.8Z" fill="#9fccff" stroke="#9fccff"></path><path d="M306.3 900L390.5 900L373.5 813.5Z" fill="#b8dbff" stroke="#b8dbff"></path><path d="M390.5 900L429.8 900L395.8 831.8Z" fill="#c6e3ff" stroke="#c6e3ff"></path><path d="M64.5 900L71.3 900L66.3 845.8Z" fill="#b2d7ff" stroke="#b2d7ff"></path><path d="M0 900L64.5 900L66.3 845.8Z" fill="#b2d7ff" stroke="#b2d7ff"></path><path d="M429.8 900L450 900L450 854.8Z" fill="#a5d0ff" stroke="#a5d0ff"></path><path d="M78.3 0L0 0L0 59.3Z" fill="#acd4ff" stroke="#acd4ff"></path><path d="M0 842.8L0 900L66.3 845.8Z" fill="#acd4ff" stroke="#acd4ff"></path></g></svg>