<?xml version="1.0" encoding="UTF-8"?>
<svg width="672px" height="1410px" viewBox="0 0 672 1410" xmlns="http://www.w3.org/2000/svg" xmlns:xlink="http://www.w3.org/1999/xlink" version="1.1">
 <!-- Generated by Pixelmator Pro 2.2 -->
 <path id="device-contour-copy" d="M598.609 0 L73.449 0 C33.093 0 0.261 32.553 0.261 72.566 L0.261 1337.433 C0.261 1377.446 33.093 1410 73.449 1410 L598.609 1410 C638.964 1410 671.796 1377.446 671.796 1337.433 L671.796 72.566 C671.796 32.553 638.964 0 598.609 0 Z M658.056 1337.433 C658.056 1369.987 631.44 1396.376 598.609 1396.376 L73.449 1396.376 C40.616 1396.376 14.001 1369.987 14.001 1337.433 L14.001 72.566 C14.001 40.012 40.616 13.623 73.449 13.623 L149.682 13.623 C153.911 13.623 157.339 17.022 157.339 21.214 L157.339 24.439 C157.339 45.974 174.946 63.433 196.666 63.433 L339.857 63.433 476.178 63.433 C497.898 63.433 515.506 45.974 515.506 24.439 L515.506 21.214 C515.506 17.022 518.934 13.623 523.162 13.623 L598.609 13.623 C631.44 13.623 658.056 40.012 658.056 72.566 Z" fill="#000000" fill-opacity="1" stroke="none"/>
</svg>
