<svg width="363" height="20" viewBox="0 0 363 20" fill="none" xmlns="http://www.w3.org/2000/svg">
<path d="M316.206 6.5103C314.92 8.53338 313.634 10.6399 312.521 12.7255V14.2411H317.11V16H318.876V14.2411H320.037V12.7255H318.876V6.5103H316.206ZM314.225 12.7255V12.7047C315.073 11.0918 316.074 9.43716 317.047 7.92854H317.11V12.7255H314.225ZM328.831 9.54839C328.755 7.78254 327.406 6.32954 325.063 6.32954C322.491 6.32954 321.031 8.01197 321.031 10.5634V11.8287C321.031 14.4149 322.317 16.1808 325.077 16.1808C327.51 16.1808 328.845 14.6096 328.845 12.7811V10.8902H325.105V12.2875H327.058V12.8924C327.058 13.8587 326.315 14.6096 325.112 14.6096C323.582 14.6096 322.922 13.4972 322.922 11.8218V10.5773C322.922 8.88099 323.694 7.90768 325.056 7.90768C326.182 7.90768 326.885 8.56814 327.003 9.54839H328.831Z" fill="white"/>
<path d="M291.006 11.6914H288V16.1524H291.006V11.6914Z" fill="white"/>
<path d="M296.016 9.46097H293.01V16.1524H296.016V9.46097Z" fill="white"/>
<path d="M301.025 7.23047H298.019V16.1524H301.025V7.23047Z" fill="white"/>
<path opacity="0.3" d="M306.035 5H303.029V16.1524H306.035V5Z" fill="white"/>
<path fill-rule="evenodd" clip-rule="evenodd" d="M338.917 5.9492C337.869 5.9492 337.019 6.79914 337.019 7.8476V13.3048C337.019 14.3533 337.869 15.2032 338.917 15.2032H356.952C358 15.2032 358.85 14.3533 358.85 13.3048V7.8476C358.85 6.79914 358 5.9492 356.952 5.9492H338.917ZM336.069 7.8476C336.069 6.27492 337.344 5 338.917 5H356.952C358.524 5 359.799 6.27492 359.799 7.8476V13.3048C359.799 14.8775 358.524 16.1524 356.952 16.1524H338.917C337.344 16.1524 336.069 14.8775 336.069 13.3048V7.8476Z" fill="white"/>
<path d="M348.409 6.7157H338.917C338.393 6.7157 337.968 7.14067 337.968 7.6649V13.4874C337.968 14.0116 338.393 14.4366 338.917 14.4366H348.409C348.933 14.4366 349.358 14.0116 349.358 13.4874V7.6649C349.358 7.14067 348.933 6.7157 348.409 6.7157Z" fill="#FDD015"/>
<path d="M362.647 9.38069C362.647 8.85646 362.222 8.43149 361.698 8.43149C361.174 8.43149 360.749 8.85646 360.749 9.38069V11.7717C360.749 12.2959 361.174 12.7209 361.698 12.7209C362.222 12.7209 362.647 12.2959 362.647 11.7717V9.38069Z" fill="white"/>
<path d="M2.81122 10.111C2.81122 7.7602 3.59481 6.54847 4.80654 6.54847C6.02635 6.54847 6.80186 7.76828 6.80186 10.111V10.8542C6.80186 13.2049 6.02635 14.4328 4.80654 14.4328C3.59481 14.4328 2.81122 13.213 2.81122 10.8542V10.111ZM0.638184 10.8703C0.638184 14.0693 2.10034 16.21 4.79039 16.21C7.56929 16.21 8.98298 13.9401 8.98298 10.8703V10.1029C8.98298 6.87968 7.5289 4.76318 4.83078 4.76318C2.14881 4.76318 0.638184 6.89583 0.638184 10.1029V10.8703ZM14.5489 14.6348C13.3533 14.6348 12.4485 13.9077 12.4485 12.8253C12.4485 11.7428 13.3533 10.9996 14.5489 10.9996C15.7364 10.9996 16.6492 11.7428 16.6492 12.8253C16.6492 13.9077 15.7364 14.6348 14.5489 14.6348ZM14.5489 9.51318C13.5472 9.51318 12.804 8.85884 12.804 7.92177C12.804 6.98469 13.5472 6.35459 14.5489 6.35459C15.5506 6.35459 16.2938 6.98469 16.2938 7.92177C16.2938 8.85884 15.5506 9.51318 14.5489 9.51318ZM14.5246 16.21C17.1097 16.21 18.8142 14.8771 18.8142 12.9626C18.8142 11.2258 17.5055 10.4179 16.5038 10.216V10.1514C17.4166 9.86862 18.378 9.11734 18.378 7.67942C18.378 5.99915 16.8512 4.76318 14.5489 4.76318C12.2466 4.76318 10.7198 5.99915 10.7198 7.67942C10.7198 9.10119 11.6488 9.86054 12.5859 10.1514V10.216C11.5922 10.4179 10.2755 11.2177 10.2755 12.9707C10.2755 14.8852 11.9477 16.21 14.5246 16.21ZM20.3167 13.423C20.3167 14.1097 20.8822 14.6752 21.5689 14.6752C22.2555 14.6752 22.821 14.1097 22.821 13.423C22.821 12.7364 22.2555 12.1709 21.5689 12.1709C20.8822 12.1709 20.3167 12.7364 20.3167 13.423ZM20.3167 7.84099C20.3167 8.52763 20.8822 9.09311 21.5689 9.09311C22.2555 9.09311 22.821 8.52763 22.821 7.84099C22.821 7.14626 22.2555 6.58886 21.5689 6.58886C20.8822 6.58886 20.3167 7.14626 20.3167 7.84099ZM27.3044 11.1611H28.4919C29.7763 11.1611 30.5034 11.8559 30.5114 12.8091C30.5195 13.7785 29.7763 14.5055 28.508 14.5055C27.3044 14.5055 26.6016 13.8189 26.5127 12.9303H24.5012C24.5416 14.6994 25.8018 16.2181 28.4515 16.2181C30.7942 16.2181 32.7168 14.9094 32.6926 12.9141C32.6683 11.145 31.3597 10.3291 30.3418 10.2564V10.1756C31.1819 10.0544 32.3614 9.19005 32.3371 7.63095C32.3048 5.95876 30.7296 4.76318 28.5404 4.76318C26.0927 4.76318 24.7598 6.20918 24.7113 7.97024H26.747C26.7955 7.25128 27.3367 6.45153 28.4677 6.45153C29.5017 6.45153 30.1883 7.07355 30.1883 7.92177C30.1964 8.83461 29.4855 9.48086 28.4353 9.48086H27.3044V11.1611ZM38.1615 4.97322C36.667 7.32398 35.1726 9.77168 33.8801 12.1952V13.9562H39.2117V16H41.2636V13.9562H42.6126V12.1952H41.2636V4.97322H38.1615ZM35.8592 12.1952V12.1709C36.8448 10.2968 38.008 8.37415 39.139 6.62117H39.2117V12.1952H35.8592Z" fill="white"/>
</svg>
